<?xml version="1.0" encoding="UTF-8"?> <svg xmlns="http://www.w3.org/2000/svg" width="168" height="168" viewBox="0 0 168 168" fill="none"> <path d="M154 16.8H140V11.2C140 8.22957 138.82 5.38081 136.72 3.2804C134.619 1.18 131.77 0 128.8 0C125.83 0 122.981 1.18 120.88 3.2804C118.78 5.38081 117.6 8.22957 117.6 11.2V16.8H95.2V11.2C95.2 8.22957 94.02 5.38081 91.9196 3.2804C89.8192 1.18 86.9704 0 84 0C81.0296 0 78.1808 1.18 76.0804 3.2804C73.98 5.38081 72.8 8.22957 72.8 11.2V16.8H50.4V11.2C50.4 8.22957 49.22 5.38081 47.1196 3.2804C45.0192 1.18 42.1704 0 39.2 0C36.2296 0 33.3808 1.18 31.2804 3.2804C29.18 5.38081 28 8.22957 28 11.2V16.8H14C10.287 16.8 6.72601 18.275 4.1005 20.9005C1.475 23.526 0 27.087 0 30.8V142.8C0 146.513 1.475 150.074 4.1005 152.699C6.72601 155.325 10.287 156.8 14 156.8H92.4C93.1426 156.8 93.8548 156.505 94.3799 155.98C94.905 155.455 95.2 154.743 95.2 154C95.2 153.257 94.905 152.545 94.3799 152.02C93.8548 151.495 93.1426 151.2 92.4 151.2H14C11.7742 151.193 9.64151 150.306 8.06765 148.732C6.49378 147.158 5.60665 145.026 5.6 142.8V56H162.4V103.6C162.4 104.343 162.695 105.055 163.22 105.58C163.745 106.105 164.457 106.4 165.2 106.4C165.943 106.4 166.655 106.105 167.18 105.58C167.705 105.055 168 104.343 168 103.6V30.8C168 27.087 166.525 23.526 163.899 20.9005C161.274 18.275 157.713 16.8 154 16.8ZM123.2 11.2C123.2 9.71479 123.79 8.2904 124.84 7.2402C125.89 6.19 127.315 5.6 128.8 5.6C130.285 5.6 131.71 6.19 132.76 7.2402C133.81 8.2904 134.4 9.71479 134.4 11.2V28C134.4 29.4852 133.81 30.9096 132.76 31.9598C131.71 33.01 130.285 33.6 128.8 33.6C127.315 33.6 125.89 33.01 124.84 31.9598C123.79 30.9096 123.2 29.4852 123.2 28V11.2ZM78.4 11.2C78.4 9.71479 78.99 8.2904 80.0402 7.2402C81.0904 6.19 82.5148 5.6 84 5.6C85.4852 5.6 86.9096 6.19 87.9598 7.2402C89.01 8.2904 89.6 9.71479 89.6 11.2V28C89.6 29.4852 89.01 30.9096 87.9598 31.9598C86.9096 33.01 85.4852 33.6 84 33.6C82.5148 33.6 81.0904 33.01 80.0402 31.9598C78.99 30.9096 78.4 29.4852 78.4 28V11.2ZM33.6 11.2C33.6 9.71479 34.19 8.2904 35.2402 7.2402C36.2904 6.19 37.7148 5.6 39.2 5.6C40.6852 5.6 42.1096 6.19 43.1598 7.2402C44.21 8.2904 44.8 9.71479 44.8 11.2V28C44.8 29.4852 44.21 30.9096 43.1598 31.9598C42.1096 33.01 40.6852 33.6 39.2 33.6C37.7148 33.6 36.2904 33.01 35.2402 31.9598C34.19 30.9096 33.6 29.4852 33.6 28V11.2ZM162.4 50.4H5.6V30.8C5.60665 28.5742 6.49378 26.4415 8.06765 24.8676C9.64151 23.2938 11.7742 22.4066 14 22.4H28V28C28 30.9704 29.18 33.8192 31.2804 35.9196C33.3808 38.02 36.2296 39.2 39.2 39.2C42.1704 39.2 45.0192 38.02 47.1196 35.9196C49.22 33.8192 50.4 30.9704 50.4 28V22.4H72.8V28C72.8 30.9704 73.98 33.8192 76.0804 35.9196C78.1808 38.02 81.0296 39.2 84 39.2C86.9704 39.2 89.8192 38.02 91.9196 35.9196C94.02 33.8192 95.2 30.9704 95.2 28V22.4H117.6V28C117.6 30.9704 118.78 33.8192 120.88 35.9196C122.981 38.02 125.83 39.2 128.8 39.2C131.77 39.2 134.619 38.02 136.72 35.9196C138.82 33.8192 140 30.9704 140 28V22.4H154C156.226 22.4066 158.358 23.2938 159.932 24.8676C161.506 26.4415 162.393 28.5742 162.4 30.8V50.4Z" fill="white"></path> <path d="M78.3996 75.5997C78.3996 74.1145 77.8096 72.6901 76.7594 71.6399C75.7092 70.5897 74.2848 69.9997 72.7996 69.9997H61.5996C60.1144 69.9997 58.69 70.5897 57.6398 71.6399C56.5896 72.6901 55.9996 74.1145 55.9996 75.5997V83.9997C55.9996 85.485 56.5896 86.9093 57.6398 87.9595C58.69 89.0097 60.1144 89.5997 61.5996 89.5997H72.7996C74.2848 89.5997 75.7092 89.0097 76.7594 87.9595C77.8096 86.9093 78.3996 85.485 78.3996 83.9997V75.5997ZM61.5996 83.9997V75.5997H72.7996V83.9997H61.5996Z" fill="white"></path> <path d="M44.7998 75.5997C44.7998 74.1145 44.2098 72.6901 43.1596 71.6399C42.1094 70.5897 40.6851 69.9997 39.1998 69.9997H27.9998C26.5146 69.9997 25.0902 70.5897 24.04 71.6399C22.9898 72.6901 22.3998 74.1145 22.3998 75.5997V83.9997C22.3998 85.485 22.9898 86.9093 24.04 87.9595C25.0902 89.0097 26.5146 89.5997 27.9998 89.5997H39.1998C40.6851 89.5997 42.1094 89.0097 43.1596 87.9595C44.2098 86.9093 44.7998 85.485 44.7998 83.9997V75.5997ZM27.9998 83.9997V75.5997H39.1998V83.9997H27.9998Z" fill="white"></path> <path d="M140 89.5997C141.485 89.5997 142.91 89.0097 143.96 87.9595C145.01 86.9093 145.6 85.485 145.6 83.9997V75.5997C145.6 74.1145 145.01 72.6901 143.96 71.6399C142.91 70.5897 141.485 69.9997 140 69.9997H128.8C127.315 69.9997 125.89 70.5897 124.84 71.6399C123.79 72.6901 123.2 74.1145 123.2 75.5997V83.9997C123.2 85.485 123.79 86.9093 124.84 87.9595C125.89 89.0097 127.315 89.5997 128.8 89.5997H140ZM128.8 75.5997H140V83.9997H128.8V75.5997Z" fill="white"></path> <path d="M78.3996 100.8C78.3996 99.3146 77.8096 97.8902 76.7594 96.84C75.7092 95.7898 74.2848 95.1998 72.7996 95.1998H61.5996C60.1144 95.1998 58.69 95.7898 57.6398 96.84C56.5896 97.8902 55.9996 99.3146 55.9996 100.8V109.2C55.9996 110.685 56.5896 112.109 57.6398 113.16C58.69 114.21 60.1144 114.8 61.5996 114.8H72.7996C74.2848 114.8 75.7092 114.21 76.7594 113.16C77.8096 112.109 78.3996 110.685 78.3996 109.2V100.8ZM61.5996 109.2V100.8H72.7996V109.2H61.5996Z" fill="white"></path> <path d="M44.7998 100.8C44.7998 99.3146 44.2098 97.8902 43.1596 96.84C42.1094 95.7898 40.6851 95.1998 39.1998 95.1998H27.9998C26.5146 95.1998 25.0902 95.7898 24.04 96.84C22.9898 97.8902 22.3998 99.3146 22.3998 100.8V109.2C22.3998 110.685 22.9898 112.109 24.04 113.16C25.0902 114.21 26.5146 114.8 27.9998 114.8H39.1998C40.6851 114.8 42.1094 114.21 43.1596 113.16C44.2098 112.109 44.7998 110.685 44.7998 109.2V100.8ZM27.9998 109.2V100.8H39.1998V109.2H27.9998Z" fill="white"></path> <path d="M72.7996 120.4H61.5996C60.1144 120.4 58.69 120.99 57.6398 122.04C56.5896 123.09 55.9996 124.515 55.9996 126V134.4C55.9996 135.885 56.5896 137.309 57.6398 138.36C58.69 139.41 60.1144 140 61.5996 140H72.7996C74.2848 140 75.7092 139.41 76.7594 138.36C77.8096 137.309 78.3996 135.885 78.3996 134.4V126C78.3996 124.515 77.8096 123.09 76.7594 122.04C75.7092 120.99 74.2848 120.4 72.7996 120.4ZM61.5996 134.4V126H72.7996V134.4H61.5996Z" fill="white"></path> <path d="M95.2003 89.5997H106.4C107.886 89.5997 109.31 89.0097 110.36 87.9595C111.41 86.9093 112 85.485 112 83.9997V75.5997C112 74.1145 111.41 72.6901 110.36 71.6399C109.31 70.5897 107.886 69.9997 106.4 69.9997H95.2003C93.7151 69.9997 92.2907 70.5897 91.2405 71.6399C90.1903 72.6901 89.6003 74.1145 89.6003 75.5997V83.9997C89.6003 85.485 90.1903 86.9093 91.2405 87.9595C92.2907 89.0097 93.7151 89.5997 95.2003 89.5997ZM95.2003 75.5997H106.4V83.9997H95.2003V75.5997Z" fill="white"></path> <path d="M89.6003 109.2C89.6003 110.685 90.1903 112.109 91.2405 113.16C92.2907 114.21 93.7151 114.8 95.2003 114.8C95.9429 114.8 96.6551 114.505 97.1802 113.98C97.7053 113.455 98.0003 112.742 98.0003 112C98.0003 111.257 97.7053 110.545 97.1802 110.02C96.6551 109.495 95.9429 109.2 95.2003 109.2V100.8H106.4C107.143 100.8 107.855 100.505 108.38 99.9797C108.905 99.4546 109.2 98.7424 109.2 97.9998C109.2 97.2572 108.905 96.545 108.38 96.0199C107.855 95.4948 107.143 95.1998 106.4 95.1998H95.2003C93.7151 95.1998 92.2907 95.7898 91.2405 96.84C90.1903 97.8902 89.6003 99.3146 89.6003 100.8V109.2Z" fill="white"></path> <path d="M39.1998 120.4H27.9998C26.5146 120.4 25.0902 120.99 24.04 122.04C22.9898 123.09 22.3998 124.515 22.3998 126V134.4C22.3998 135.885 22.9898 137.309 24.04 138.36C25.0902 139.41 26.5146 140 27.9998 140H39.1998C40.6851 140 42.1094 139.41 43.1596 138.36C44.2098 137.309 44.7998 135.885 44.7998 134.4V126C44.7998 124.515 44.2098 123.09 43.1596 122.04C42.1094 120.99 40.6851 120.4 39.1998 120.4ZM27.9998 134.4V126H39.1998V134.4H27.9998Z" fill="white"></path> <path d="M131.6 95.1998C124.401 95.1998 117.363 97.3346 111.377 101.334C105.391 105.334 100.726 111.019 97.9706 117.67C95.2156 124.321 94.4947 131.64 95.8992 138.701C97.3037 145.762 100.771 152.248 105.861 157.339C110.952 162.429 117.438 165.896 124.499 167.3C131.559 168.705 138.878 167.984 145.529 165.229C152.181 162.474 157.866 157.809 161.865 151.823C165.865 145.837 168 138.799 168 131.6C167.989 121.949 164.15 112.697 157.326 105.873C150.502 99.0495 141.25 95.2109 131.6 95.1998ZM131.6 162.4C125.508 162.4 119.553 160.593 114.488 157.209C109.423 153.825 105.476 149.014 103.144 143.386C100.813 137.759 100.203 131.566 101.392 125.591C102.58 119.616 105.513 114.128 109.821 109.821C114.128 105.513 119.616 102.58 125.591 101.392C131.566 100.203 137.758 100.813 143.386 103.144C149.014 105.475 153.825 109.423 157.209 114.488C160.593 119.553 162.4 125.508 162.4 131.6C162.39 139.766 159.142 147.594 153.368 153.368C147.594 159.142 139.766 162.39 131.6 162.4Z" fill="white"></path> <path d="M147.778 119.862L126 141.641L116.102 131.74C115.574 131.23 114.866 130.948 114.132 130.954C113.398 130.96 112.696 131.255 112.177 131.774C111.657 132.293 111.363 132.995 111.357 133.73C111.35 134.464 111.632 135.171 112.143 135.699L124.02 147.579C124.545 148.104 125.257 148.399 126 148.399C126.742 148.399 127.454 148.104 127.979 147.579L151.737 123.821C152.247 123.293 152.53 122.586 152.523 121.852C152.517 121.118 152.222 120.416 151.703 119.896C151.184 119.377 150.482 119.083 149.748 119.076C149.013 119.07 148.306 119.352 147.778 119.862Z" fill="white"></path> </svg> 