<?xml version="1.0" encoding="UTF-8"?> <svg xmlns="http://www.w3.org/2000/svg" width="164" height="164" viewBox="0 0 164 164" fill="none"> <g clip-path="url(#clip0)"> <path d="M28.9399 86.6963C30.8721 86.6963 32.4385 85.1299 32.4385 83.1978C32.4385 81.2656 30.8721 79.6992 28.9399 79.6992C27.0077 79.6992 25.4414 81.2656 25.4414 83.1978C25.4414 85.1299 27.0077 86.6963 28.9399 86.6963Z" fill="white"></path> <path d="M28.9399 103.971C30.8721 103.971 32.4385 102.404 32.4385 100.472C32.4385 98.54 30.8721 96.9736 28.9399 96.9736C27.0077 96.9736 25.4414 98.54 25.4414 100.472C25.4414 102.404 27.0077 103.971 28.9399 103.971Z" fill="white"></path> <path d="M28.9399 121.245C30.8721 121.245 32.4385 119.679 32.4385 117.747C32.4385 115.814 30.8721 114.248 28.9399 114.248C27.0077 114.248 25.4414 115.814 25.4414 117.747C25.4414 119.679 27.0077 121.245 28.9399 121.245Z" fill="white"></path> <path d="M114.439 0H41.8853C38.1026 0 34.5449 1.4673 31.8632 4.13287L5.69236 28.5102C5.67136 28.5299 5.65069 28.5496 5.63067 28.57C2.94508 31.2556 1.46614 34.8261 1.46614 38.6241V75.9765C1.46614 77.3143 2.55072 78.3989 3.8885 78.3989C5.22629 78.3989 6.31087 77.3143 6.31087 75.9765V38.6241C6.31087 38.3679 6.32346 38.1134 6.34381 37.8609H31.1653C36.6556 37.8609 41.1225 33.3943 41.1225 27.904V4.87767C41.375 4.85732 41.6292 4.84472 41.8857 4.84472H114.439C117.063 4.84472 119.197 6.97963 119.197 9.60353V154.397C119.197 157.021 117.063 159.156 114.439 159.156H11.0694C8.44513 159.156 6.31054 157.021 6.31054 154.397V85.6663C6.31054 84.3285 5.22597 83.2439 3.88818 83.2439C2.55039 83.2439 1.46582 84.3285 1.46582 85.6663V154.397C1.46582 159.692 5.77375 164 11.0694 164H114.439C119.734 164 124.042 159.692 124.042 154.397V9.60353C124.042 4.30793 119.734 0 114.439 0V0ZM36.2774 27.904C36.2774 30.723 33.9839 33.0161 31.1649 33.0161H8.17285C8.43285 32.6696 8.71708 32.3376 9.02746 32.0246L35.1954 7.64982C35.2164 7.63011 35.2371 7.61041 35.2571 7.59006C35.5788 7.26837 35.9202 6.97382 36.2777 6.70574V27.904H36.2774Z" fill="white"></path> <path d="M100.067 80.7754H43.8706C42.5328 80.7754 41.4482 81.86 41.4482 83.1977C41.4482 84.5355 42.5328 85.6201 43.8706 85.6201H100.067C101.405 85.6201 102.489 84.5355 102.489 83.1977C102.489 81.86 101.405 80.7754 100.067 80.7754Z" fill="white"></path> <path d="M100.067 98.0498H43.8706C42.5328 98.0498 41.4482 99.1344 41.4482 100.472C41.4482 101.81 42.5328 102.895 43.8706 102.895H100.067C101.405 102.895 102.489 101.81 102.489 100.472C102.489 99.1344 101.405 98.0498 100.067 98.0498Z" fill="white"></path> <path d="M100.067 115.325H43.8706C42.5328 115.325 41.4482 116.41 41.4482 117.748C41.4482 119.085 42.5328 120.17 43.8706 120.17H100.067C101.405 120.17 102.489 119.085 102.489 117.748C102.489 116.41 101.405 115.325 100.067 115.325Z" fill="white"></path> <path d="M55.5264 56.7461H26.853C25.5152 56.7461 24.4307 57.8307 24.4307 59.1685C24.4307 60.5062 25.5152 61.5908 26.853 61.5908H55.5264C56.8641 61.5908 57.9487 60.5062 57.9487 59.1685C57.9487 57.8307 56.8641 56.7461 55.5264 56.7461Z" fill="white"></path> <path d="M160.111 50.9743H152.659V45.1439C152.659 39.5947 148.144 35.0801 142.595 35.0801C137.046 35.0801 132.531 39.5947 132.531 45.1439V77.8474C132.531 79.1851 133.616 80.2697 134.954 80.2697C136.291 80.2697 137.376 79.1851 137.376 77.8474V55.8187H147.814V132.335H137.376V87.5368C137.376 86.199 136.291 85.1144 134.954 85.1144C133.616 85.1144 132.531 86.199 132.531 87.5368V134.758C132.531 134.775 132.534 134.792 132.534 134.809C132.535 134.857 132.537 134.906 132.541 134.954C132.544 134.992 132.548 135.03 132.553 135.067C132.558 135.106 132.564 135.145 132.571 135.184C132.579 135.23 132.589 135.276 132.6 135.321C132.604 135.339 132.606 135.356 132.611 135.374L139.54 161.688C139.556 161.75 139.575 161.81 139.595 161.87C140.04 163.144 141.246 163.999 142.595 163.999C143.944 163.999 145.15 163.143 145.594 161.869C145.615 161.81 145.634 161.749 145.649 161.688L152.579 135.374C152.584 135.356 152.586 135.339 152.59 135.321C152.601 135.276 152.611 135.23 152.619 135.184C152.626 135.145 152.632 135.106 152.636 135.067C152.641 135.03 152.646 134.992 152.648 134.954C152.652 134.906 152.655 134.857 152.656 134.809C152.656 134.792 152.658 134.775 152.658 134.758V55.819H157.688V90.7828C157.688 92.1206 158.773 93.2051 160.111 93.2051C161.448 93.2051 162.533 92.1206 162.533 90.7828V53.3967C162.533 52.0589 161.449 50.9743 160.111 50.9743ZM137.376 50.9743V45.1439C137.376 42.2661 139.717 39.9248 142.595 39.9248C145.473 39.9248 147.814 42.2661 147.814 45.1439V50.9743H137.376ZM142.595 154.264L138.097 137.18H147.093L142.595 154.264Z" fill="white"></path> </g> <defs> <clipPath id="clip0"> <rect width="41" height="41" fill="white" transform="scale(4)"></rect> </clipPath> </defs> </svg> 