<?xml version="1.0" encoding="UTF-8"?> <svg xmlns="http://www.w3.org/2000/svg" width="164" height="164" viewBox="0 0 164 164" fill="none"> <g clip-path="url(#clip0)"> <path d="M150.915 131.381V58.4506C150.915 54.1215 147.393 50.5994 143.064 50.5994C138.735 50.5994 135.213 54.1215 135.213 58.4506V132.777C132.401 134.508 130.15 136.977 128.684 139.927H89.5025V114.28C89.5025 109.951 85.9803 106.429 81.6513 106.429C77.3223 106.429 73.8001 109.951 73.8001 114.28V139.927H34.968C33.1996 136.365 30.2947 133.523 26.694 131.834V92.8207H46.7578C51.0868 92.8207 54.6089 89.2986 54.6089 84.9696C54.6089 80.6405 51.0868 77.1184 46.7578 77.1184H26.694V40.5483C30.1617 38.9173 33.001 36.1988 34.7858 32.8038H102.588C106.917 32.8038 110.439 29.2816 110.439 24.9526C110.439 20.6236 106.917 17.1014 102.588 17.1014H35.1336C32.2546 10.9793 26.0681 6.98242 19.1917 6.98242C9.47531 6.98242 1.57031 14.8871 1.57031 24.6038C1.57031 31.2336 5.21483 37.1741 10.9917 40.1991V132.183C5.21515 135.208 1.57031 141.149 1.57031 147.778C1.57063 157.495 9.47531 165.399 19.192 165.399C25.8916 165.399 32.0144 161.54 34.9658 155.629H128.687C131.638 161.54 137.76 165.399 144.46 165.399C154.176 165.399 162.081 157.495 162.081 147.778C162.081 140.476 157.58 134.001 150.915 131.381ZM36.6657 22.3356H102.588C104.031 22.3356 105.205 23.5096 105.205 24.9526C105.205 26.3956 104.031 27.5695 102.588 27.5695H36.558C36.7246 26.5942 36.813 25.6044 36.813 24.6035C36.813 23.8427 36.763 23.0858 36.6657 22.3356ZM46.7578 82.3526C48.2011 82.3526 49.3747 83.5265 49.3747 84.9696C49.3747 86.4129 48.2008 87.5865 46.7578 87.5865H24.0771C22.6315 87.5865 21.4601 88.7579 21.4601 90.2035V130.304C20.7099 130.207 19.953 130.157 19.192 130.157C18.1913 130.157 17.2012 130.245 16.2259 130.412V41.9698C17.2012 42.1364 18.191 42.2248 19.192 42.2248C19.953 42.2248 20.7099 42.1745 21.4601 42.0771V79.7353C21.4601 81.1809 22.6315 82.3523 24.0771 82.3523H46.7578V82.3526ZM6.80454 24.6038C6.80454 17.7734 12.3613 12.2166 19.1917 12.2166C24.4765 12.2166 29.1832 15.5738 30.9036 20.5704C31.3517 21.8718 31.5788 23.229 31.5788 24.6038C31.5788 26.1906 31.2796 27.7409 30.6893 29.2124V29.2131C29.3472 32.5555 26.6268 35.1446 23.2247 36.3157C21.9233 36.7638 20.5661 36.9909 19.1913 36.9909C17.6045 36.9909 16.0542 36.6917 14.5827 36.1014C14.582 36.1011 14.5817 36.1011 14.5811 36.1007C9.85712 34.2035 6.80454 29.6916 6.80454 24.6038ZM30.8036 152.099C30.8036 152.099 30.8033 152.1 30.8033 152.1C29.0067 156.924 24.3407 160.165 19.1917 160.165C12.3613 160.165 6.80454 154.608 6.80454 147.778C6.80454 142.69 9.85712 138.178 14.5814 136.281C14.582 136.281 14.5827 136.281 14.583 136.28C16.0545 135.69 17.6048 135.391 19.1917 135.391C20.5664 135.391 21.9236 135.618 23.225 136.066C26.7434 137.278 29.5054 139.971 30.8036 143.457C31.3184 144.839 31.5794 146.293 31.5794 147.778C31.5794 149.264 31.3184 150.717 30.8036 152.099ZM127.036 150.395H36.6157C36.7445 149.533 36.8133 148.659 36.8133 147.778C36.8133 146.897 36.7445 146.023 36.6157 145.161H76.4174C77.863 145.161 79.0344 143.99 79.0344 142.544V114.28C79.0344 112.837 80.2083 111.663 81.6513 111.663C83.0947 111.663 84.2683 112.837 84.2683 114.28V142.544C84.2683 143.99 85.4397 145.161 86.8852 145.161H127.036C126.907 146.023 126.838 146.897 126.838 147.778C126.838 148.659 126.907 149.533 127.036 150.395ZM140.447 58.4506C140.447 57.0072 141.621 55.8336 143.064 55.8336C144.508 55.8336 145.681 57.0075 145.681 58.4506V130.202C145.275 130.173 144.868 130.157 144.46 130.157C143.092 130.157 141.751 130.31 140.447 130.615V58.4506H140.447ZM144.46 160.165C139.311 160.165 134.645 156.924 132.848 152.101C132.848 152.1 132.848 152.1 132.848 152.099C132.333 150.717 132.072 149.264 132.072 147.778C132.072 146.293 132.333 144.839 132.848 143.457C133.955 140.485 136.136 138.072 138.988 136.664C140.7 135.819 142.541 135.391 144.459 135.391C145.53 135.391 146.597 135.529 147.63 135.802C153.057 137.234 156.847 142.159 156.847 147.778C156.847 154.609 151.29 160.165 144.46 160.165Z" fill="white"></path> <path d="M161.663 14.5835L147.846 0.766187C147.355 0.275789 146.69 0 145.995 0C145.301 0 144.635 0.276109 144.144 0.766828L81.2517 63.6909L67.4174 77.5252C67.4043 77.5384 67.3927 77.5534 67.3796 77.5672C67.3396 77.6092 67.3005 77.6518 67.263 77.6963C67.2502 77.7117 67.2368 77.727 67.2243 77.7424C67.2137 77.7552 67.2047 77.769 67.1945 77.7821C67.1656 77.8199 67.1371 77.8577 67.1102 77.8971C67.0916 77.924 67.0737 77.9512 67.0564 77.9788C67.0474 77.9935 67.0382 78.0076 67.0295 78.0224C67.0125 78.0509 66.9956 78.08 66.9792 78.1095C66.9568 78.1495 66.9363 78.1908 66.9161 78.2318C66.9084 78.2475 66.8998 78.2629 66.8924 78.2786C66.8838 78.2975 66.8758 78.3167 66.8677 78.3359C66.8456 78.3869 66.8258 78.4384 66.8075 78.491C66.8005 78.5105 66.7918 78.5288 66.7851 78.5483L63.3309 88.9114L60.0877 98.6405L56.2129 102.515C55.1908 103.538 55.1908 105.194 56.2129 106.217C56.7241 106.727 57.3939 106.983 58.0636 106.983C58.7331 106.983 59.4032 106.727 59.9144 106.217L63.7261 102.405L83.9129 95.6761C83.9337 95.669 83.9529 95.66 83.9731 95.6524C84.0234 95.6341 84.0737 95.6155 84.1227 95.5937C84.1425 95.5854 84.1624 95.5774 84.1816 95.5681C84.1979 95.5604 84.2136 95.5515 84.23 95.5438C84.2703 95.5242 84.3104 95.5041 84.3501 95.4819C84.3792 95.4656 84.4087 95.4493 84.4372 95.4317C84.4526 95.4227 84.4676 95.4131 84.4827 95.4035C84.5099 95.3862 84.5372 95.3682 84.5641 95.3497C84.6025 95.3231 84.6396 95.2958 84.6765 95.2677C84.6906 95.2568 84.705 95.2472 84.7188 95.2359C84.7348 95.2231 84.7505 95.2094 84.7662 95.1959C84.8084 95.1607 84.8485 95.1238 84.8879 95.086C84.9033 95.0713 84.9196 95.0585 84.935 95.0434L119.478 60.5006C119.525 60.4539 119.569 60.4061 119.611 60.3568L161.664 18.2838C162.685 17.262 162.685 15.605 161.663 14.5835ZM66.4978 95.9637L68.297 90.5668L70.4123 84.221L78.2408 92.0495L66.4978 95.9637ZM115.772 56.7952C115.726 56.8417 115.682 56.8891 115.639 56.9381L83.0852 89.4921L72.9694 79.376L84.9532 67.3918L145.996 6.31848L156.112 16.4343L115.772 56.7952Z" fill="white"></path> </g> <defs> <clipPath id="clip0"> <rect width="41" height="41" fill="white" transform="scale(4)"></rect> </clipPath> </defs> </svg> 